<svg width="20" height="16" viewBox="0 0 20 16" fill="none" xmlns="http://www.w3.org/2000/svg">
<path d="M10.0001 15C9.15809 15 8.31509 14.822 7.49609 14.505" stroke="#8257E5" stroke-width="1.5" stroke-linecap="round" stroke-linejoin="round"/>
<path d="M18.882 8.46802C16.99 11.967 13.495 15 10 15" stroke="#8257E5" stroke-width="1.5" stroke-linecap="round" stroke-linejoin="round"/>
<path d="M17.0791 4.92102C17.7701 5.73002 18.3841 6.61202 18.8821 7.53302C19.0391 7.82402 19.0391 8.17702 18.8821 8.46802" stroke="#8257E5" stroke-width="1.5" stroke-linecap="round" stroke-linejoin="round"/>
<path d="M3 15L17 1" stroke="#8257E5" stroke-width="1.5" stroke-linecap="round" stroke-linejoin="round"/>
<path d="M7.77309 10.227C6.54309 8.99699 6.54309 7.00199 7.77309 5.77199C9.00309 4.54199 10.9981 4.54199 12.2281 5.77199" stroke="#8257E5" stroke-width="1.5" stroke-linecap="round" stroke-linejoin="round"/>
<path d="M15.044 2.956C13.497 1.759 11.748 1 9.99999 1C6.50499 1 3.00999 4.033 1.11799 7.533C0.960994 7.824 0.960994 8.177 1.11799 8.468C2.06399 10.217 3.40999 11.849 4.95599 13.045" stroke="#8257E5" stroke-width="1.5" stroke-linecap="round" stroke-linejoin="round"/>
</svg>
